<svg width="67" height="79" viewBox="0 0 67 79" fill="none" xmlns="http://www.w3.org/2000/svg">
<g id="Vector">
<path d="M12.8595 32.0016C13.7112 32.0016 14.4016 31.3112 14.4016 30.4595C14.4016 29.6079 13.7112 28.9174 12.8595 28.9174C12.0079 28.9174 11.3175 29.6079 11.3175 30.4595C11.3175 31.3112 12.0079 32.0016 12.8595 32.0016Z" fill="#7A9CA5"/>
<path d="M65.015 28.8427C64.0444 27.7273 62.609 27.0889 61.0776 27.0889H48.6041V24.4482C48.6041 20.5809 45.4575 17.4343 41.5902 17.4343H40.3818V17.2377C40.3818 14.4736 38.1906 12.2139 35.4539 12.0996V9.46955C36.5998 9.20137 37.5948 8.81586 38.4314 8.30844C39.9856 7.36523 40.6591 6.22545 40.9502 5.43614C41.5993 3.67314 40.9167 1.65263 39.3959 0.837409C38.9632 0.60732 38.5045 0.48999 38.0306 0.48999C36.999 0.48999 36.0299 1.06293 35.4448 2.00004C35.1492 2.19356 34.0186 2.77717 31.1371 2.77717H23.9586C20.3123 2.77717 18.0464 5.27005 18.0464 9.28518C18.0464 11.2524 19.4635 12.8538 21.2067 12.8538C22.7594 12.8538 24.0546 11.583 24.3182 9.91449H27.7665V12.0996C25.0298 12.2139 22.8387 14.4736 22.8387 17.2377V17.4343H21.6288C17.7615 17.4343 14.6149 20.5809 14.6149 24.4482V24.5518H10.0954C8.09012 24.5518 6.45816 26.1838 6.45816 28.189V35.0628C5.36258 35.9999 4.66621 37.3896 4.66621 38.9423V41.2081C2.5878 42.6923 1.17221 45.0632 0.990886 47.7832C0.913174 48.9763 0.858318 50.241 0.829367 51.5393C0.815653 52.196 1.33526 52.74 1.992 52.7552C2.64722 52.7705 3.19273 52.2493 3.20644 51.5926C3.23387 50.3294 3.2872 49.1012 3.36339 47.9401C3.52186 45.5387 5.00297 43.5105 7.06005 42.5506C7.07529 42.5445 7.089 42.5368 7.10272 42.5307C7.92555 42.1574 8.83677 41.9563 9.74036 41.9563H15.9756C16.8823 41.9563 17.7889 42.1574 18.6133 42.5307C18.6285 42.5368 18.6422 42.5445 18.6559 42.5506C20.7359 43.5151 22.2002 45.6499 22.3526 47.9401C22.473 49.7458 22.5324 51.6017 22.5324 53.4531C22.5324 54.3293 22.508 55.2039 22.4897 56.0786C22.4882 56.109 22.4882 56.1395 22.4867 56.1715C22.476 56.4808 21.6151 57.3341 21.4353 57.6541C21.1397 58.1798 20.9004 58.733 20.7237 59.309C20.3214 60.6163 20.2361 61.9954 20.2117 63.3546C20.1766 65.3903 20.3793 67.4352 20.8288 69.4222C20.8303 69.4313 20.8319 69.439 20.8349 69.4481C20.0837 71.5143 18.1516 72.8811 15.936 72.8811H9.77998C7.33128 72.8811 5.18582 71.1349 4.67536 68.7289C3.86624 64.9118 3.38168 60.7261 3.23387 56.2858C3.21254 55.6291 2.65941 55.114 2.00572 55.1369C1.34897 55.1582 0.833938 55.7083 0.856795 56.365C1.00917 60.944 1.51202 65.2699 2.34856 69.2226C3.08911 72.7212 6.21589 75.2613 9.77998 75.2613H15.939C18.2552 75.2613 20.358 74.2358 21.7644 72.5459C22.5156 74.5466 23.5274 76.4026 24.7784 78.0422C25.0039 78.3363 25.3529 78.51 25.7232 78.51H48.1667C48.537 78.51 48.8875 78.3363 49.1115 78.0422C49.4741 77.5683 49.8155 77.0746 50.137 76.5671H60.363C61.0197 76.5671 61.553 76.0353 61.553 75.3771V65.5579L64.3766 45.1608C64.4665 44.5101 64.0124 43.9098 63.3618 43.8199C62.7096 43.7299 62.1107 44.184 62.0208 44.8347L59.7626 61.1512H53.5456C53.4649 60.3695 53.2942 59.5985 53.0184 58.8625C52.1712 56.6043 50.4372 54.823 48.2627 53.8935L48.2201 53.5811L45.2579 32.1813C45.2472 32.1051 45.2411 32.0274 45.2381 31.9512C45.2381 31.9467 45.2381 31.9436 45.2381 31.939C45.2167 31.1695 45.6297 30.4762 46.23 30.0206C46.7131 29.6549 47.347 29.469 47.9488 29.469H61.0791C61.9218 29.469 62.7035 29.8103 63.2231 30.4061C63.665 30.9135 63.86 31.5444 63.7716 32.1798L62.6791 40.0744C62.5892 40.7251 63.0433 41.3254 63.6939 41.4153C64.3446 41.5052 64.9449 41.0512 65.0348 40.4005L66.1274 32.5044C66.3102 31.1772 65.9156 29.8759 65.015 28.8427ZM23.9571 7.53437C23.4086 7.53437 22.7274 7.59684 22.3328 8.03112C22.0235 8.37092 21.9869 8.84786 21.9869 9.28518C21.9869 9.98611 21.5755 10.4752 21.2052 10.4752C20.8349 10.4752 20.4235 9.98611 20.4235 9.28518C20.4235 5.69213 22.6375 5.15729 23.9571 5.15729H31.1356C32.2449 5.15729 33.3969 5.0872 34.4985 4.84949C35.4478 4.64378 36.5099 4.33903 37.2078 3.6259C37.4623 3.36534 37.5857 2.87164 38.0291 2.87164C38.1083 2.87164 38.1861 2.89297 38.2668 2.93564C38.6874 3.16116 38.9678 3.92761 38.7133 4.61635C38.5091 5.17101 37.6238 6.73896 34.0963 7.31799C34.0871 7.31952 34.0795 7.31952 34.0704 7.32104C33.1012 7.47951 32.1169 7.53589 31.1356 7.53589L23.9571 7.53437ZM33.0723 9.83526V12.092H30.1451V9.91297C30.1482 9.96478 33.0723 9.85964 33.0723 9.83526ZM27.9814 14.4706H35.236C36.7598 14.4706 38.0002 15.7109 38.0002 17.2347V17.4312H25.2173V17.2347C25.2173 15.7109 26.4576 14.4706 27.9814 14.4706ZM8.83829 28.1936V28.1875C8.83829 27.4942 9.40208 26.9304 10.0954 26.9304H15.6221C15.6495 26.9304 15.6754 26.9335 15.7013 26.935C15.7074 26.935 15.712 26.9365 15.7166 26.9365C17.1108 27.0386 16.8792 28.6614 16.8792 29.6366C16.8792 30.8206 16.8792 32.0046 16.8792 33.1885C16.8792 33.4338 16.8792 33.6777 16.8792 33.923C16.5729 33.8666 16.2606 33.8377 15.9482 33.8377C15.9482 33.8377 9.77084 33.8377 9.76779 33.8377C9.4798 33.8377 9.14304 33.9215 8.83981 33.9123C8.74991 32.0183 8.83829 30.0922 8.83829 28.1936ZM18.6727 39.9998C18.6727 39.6539 16.3108 39.5746 15.9756 39.5746H9.74341C8.83067 39.5746 7.91489 39.7194 7.04634 39.9998V38.9392C7.04634 37.4688 8.29888 36.2147 9.77084 36.2147H15.9512C16.8457 36.2147 17.7097 36.678 18.2095 37.4185C18.7306 38.1911 18.6727 39.1114 18.6727 39.9998ZM51.9716 73.0625C51.9899 73.0031 52.0036 72.9573 52.0143 72.9284C52.4272 71.7612 52.7959 70.5726 53.0657 69.3628C53.4923 67.452 53.7011 65.4848 53.6782 63.5267H59.1744V74.184C59.1744 74.184 51.4398 74.184 51.4367 74.184C51.6409 74.1855 51.8664 73.4099 51.9716 73.0625ZM50.6947 59.4735H45.0781C44.4213 59.4735 43.888 60.0053 43.888 60.6636C43.888 61.3218 44.4198 61.8536 45.0781 61.8536H51.2188C51.2234 61.9039 51.2265 61.9557 51.231 62.006C51.6013 66.9339 50.4585 72.072 47.5664 76.1298H26.3251C24.8668 74.0849 23.8108 71.685 23.1998 69.0946C22.6436 66.7343 22.4699 64.2703 22.6711 61.8536H40.3193C40.9761 61.8536 41.5094 61.3218 41.5094 60.6636C41.5094 60.0053 40.9776 59.4735 40.3193 59.4735H23.1922C23.5 58.7436 23.9449 58.0747 24.5118 57.4957C25.6988 56.2827 27.3947 55.5605 29.112 55.5605H44.7779C45.3219 55.5605 45.8582 55.6306 46.3748 55.7662C48.2795 56.2614 49.9145 57.6237 50.6947 59.4735ZM46.2239 27.3708C46.2239 27.3632 44.8053 28.1068 44.6697 28.2134C42.3353 30.0739 42.9372 32.7923 43.2922 35.3599L45.7668 53.2367C45.7592 53.2352 45.7516 53.2352 45.7424 53.2352C45.6068 53.22 45.4697 53.2093 45.3325 53.2002C45.3021 53.1986 45.2731 53.1956 45.2426 53.1941C45.0887 53.1865 44.9333 53.1804 44.7764 53.1804H29.112C28.3578 53.1804 27.605 53.2779 26.8751 53.4683C26.5201 53.5613 26.1696 53.6756 25.8298 53.8097C25.7049 53.86 24.911 54.1358 24.9095 54.2394C24.9125 53.9742 24.9125 53.7122 24.9125 53.4501C24.9125 51.5454 24.85 49.6376 24.7266 47.7801C24.6367 46.4255 24.2222 45.0891 23.5381 43.9174C23.2272 43.3856 22.86 42.8858 22.4455 42.4302C22.2307 42.194 22.0036 41.97 21.7644 41.7597C21.6745 41.6805 21.0513 41.2782 21.0513 41.1944V38.9377C21.0513 37.4703 20.3885 36.0151 19.2593 35.0551V28.186C19.2593 28.1007 19.2548 28.0169 19.2487 27.9331C19.2471 27.9163 19.2456 27.898 19.2441 27.8812C19.1283 26.4931 18.2308 25.3244 16.9935 24.8185V24.4451C16.9935 21.8898 19.0734 19.8098 21.6288 19.8098H41.5871C44.1425 19.8098 46.2224 21.8898 46.2224 24.4451C46.2239 24.4467 46.2239 27.3708 46.2239 27.3708Z" fill="#7A9CA5"/>
</g>
</svg>
