<svg width="49" height="73" viewBox="0 0 49 73" fill="none" xmlns="http://www.w3.org/2000/svg">
<g id="Icon">
<path d="M35.9886 29.3181C34.9634 28.653 33.1044 28.2564 31.0119 28.2564C28.9208 28.2564 27.0603 28.653 26.0366 29.3181C25.5289 29.6472 25.3855 30.325 25.7145 30.8312C26.0436 31.3375 26.7214 31.4823 27.2291 31.1533C27.7733 30.8003 29.1542 30.4445 31.0133 30.4445C32.8723 30.4445 34.2533 30.8003 34.7975 31.1533C34.9817 31.2728 35.1884 31.3305 35.3923 31.3305C35.7509 31.3305 36.1011 31.1547 36.3106 30.8326C36.6397 30.325 36.4948 29.6472 35.9886 29.3181Z" fill="#7A9CA5"/>
<path d="M30.5661 44.0963C30.1639 43.6449 29.472 43.607 29.0206 44.0091C28.3611 44.5984 26.7073 45.1918 24.4995 45.1918C22.2903 45.1918 20.6366 44.597 19.9784 44.0091C19.527 43.607 18.8352 43.6449 18.433 44.0963C18.0308 44.5463 18.0688 45.2382 18.5202 45.6418C19.7394 46.7316 21.9753 47.3813 24.4995 47.3813C27.0252 47.3813 29.2597 46.7316 30.4789 45.6418C30.9303 45.2382 30.9697 44.5477 30.5661 44.0963Z" fill="#7A9CA5"/>
<path d="M21.9106 34.4495C21.5028 34.0023 20.8109 33.9714 20.3651 34.3792C20.0487 34.6675 19.1698 34.9782 17.9872 34.9782C16.8045 34.9782 15.9256 34.6675 15.6092 34.3792C15.162 33.9714 14.4701 34.0037 14.0637 34.4495C13.6559 34.8967 13.6883 35.5886 14.1341 35.995C14.9384 36.729 16.3784 37.1664 17.9872 37.1664C19.5959 37.1664 21.0373 36.729 21.8403 35.995C22.2861 35.5886 22.3184 34.8953 21.9106 34.4495Z" fill="#7A9CA5"/>
<path d="M22.9625 29.3181C21.9374 28.653 20.0783 28.2564 17.9872 28.2564C15.8961 28.2564 14.0356 28.653 13.0119 29.3181C12.5056 29.6472 12.3608 30.325 12.6899 30.8312C12.8994 31.1533 13.2509 31.3291 13.6081 31.3291C13.812 31.3291 14.0188 31.2714 14.203 31.1519C14.7472 30.7989 16.1281 30.4431 17.9872 30.4431C19.8463 30.4431 21.2272 30.7989 21.7714 31.1519C22.2791 31.4809 22.9569 31.3375 23.2845 30.8298C23.6136 30.325 23.4702 29.6472 22.9625 29.3181Z" fill="#7A9CA5"/>
<path d="M34.9353 34.4495C34.5275 34.0023 33.8356 33.9714 33.3898 34.3792C33.0734 34.6675 32.1945 34.9782 31.0119 34.9782C29.8292 34.9782 28.9503 34.6675 28.6339 34.3792C28.1881 33.9714 27.4948 34.0037 27.0884 34.4495C26.6806 34.8967 26.713 35.5886 27.1588 35.995C27.9631 36.729 29.4031 37.1664 31.0119 37.1664C32.6206 37.1664 34.0606 36.729 34.865 35.995C35.3122 35.5886 35.3431 34.8953 34.9353 34.4495Z" fill="#7A9CA5"/>
<path d="M45.7058 65.065C43.7736 63.4225 41.1383 62.5183 38.2864 62.5183C34.5331 62.5183 31.9372 61.6816 30.8445 61.247V56.2858C36.4709 54.2453 40.8444 49.5737 42.4714 43.7645C45.9941 43.323 48.732 40.3037 48.732 36.67C48.732 33.3105 46.3555 30.4234 43.1605 29.695V27.272C44.4247 22.8409 44.3459 18.4886 44.052 15.6044C43.8847 13.9562 43.6316 12.6006 43.4487 11.7541C43.2786 10.968 43.1689 10.5433 43.0873 10.2972C43.0705 10.2325 43.0494 10.1692 43.0198 10.1073C41.8077 7.53812 39.6519 5.34858 36.8928 3.70749C36.8366 3.66671 36.7775 3.63296 36.7156 3.60343C33.3252 1.63608 29.0487 0.48999 24.4995 0.48999C20.9178 0.48999 17.4148 1.19874 14.3703 2.5389C13.8177 2.78218 13.5659 3.42765 13.8092 3.98171C14.0525 4.53437 14.698 4.78608 15.252 4.5428C18.0209 3.32358 21.2188 2.67952 24.4995 2.67952C28.1291 2.67952 31.5519 3.45999 34.3897 4.82687C33.0594 5.97155 31.4759 7.07405 29.5831 8.17233C29.06 8.47608 28.8828 9.14546 29.1866 9.66858C29.3891 10.0187 29.7561 10.2142 30.1344 10.2142C30.3214 10.2142 30.5098 10.1664 30.6828 10.0666C32.975 8.73624 34.8552 7.38905 36.4077 5.96452C38.3061 7.20765 39.8178 8.75593 40.7797 10.5292C40.7417 10.5897 40.7023 10.6487 40.663 10.7092C40.6362 10.7486 40.6095 10.7894 40.5828 10.8287C38.1866 14.3191 33.1016 17.6631 25.7455 20.5867C25.7019 20.6036 25.6569 20.6205 25.6133 20.6387C25.453 20.702 25.2927 20.7653 25.1309 20.8272C17.8142 23.6537 10.3512 25.3145 7.72156 25.8531C7.12391 23.4301 6.93547 21.0395 6.95656 18.9034C7.86641 18.7206 8.77203 18.4591 9.65656 18.2045C10.3498 18.0034 11.067 17.7967 11.7589 17.6364C11.7702 17.6336 11.7814 17.6308 11.7927 17.628C16.2913 16.4369 20.7181 14.8281 26.1477 12.4108C26.7003 12.1647 26.9478 11.5178 26.7017 10.9666C26.4556 10.4153 25.8088 10.1664 25.2575 10.4125C19.9461 12.7778 15.6247 14.35 11.2498 15.5087C10.5059 15.6817 9.76484 15.8955 9.04906 16.1022C8.36422 16.3005 7.70328 16.4903 7.05641 16.6422C7.29406 13.585 7.87625 11.3884 7.99297 10.968C8.75094 9.39718 9.94906 7.96983 11.5564 6.72108C12.0345 6.35124 12.1203 5.66358 11.7505 5.18546C11.3792 4.70874 10.693 4.62155 10.2148 4.9914C8.30656 6.47358 6.88062 8.19483 5.97641 10.1101C5.95391 10.1594 5.93422 10.2086 5.91875 10.2606C5.81469 10.6051 3.40578 18.7628 5.83578 27.2762V29.6992C2.64359 30.4234 0.265625 33.3119 0.265625 36.6714C0.265625 40.3051 3.005 43.3244 6.52625 43.7659C8.15328 49.5751 12.5281 54.2467 18.1531 56.2872V61.2484C17.0577 61.6844 14.4631 62.5211 10.7113 62.5211C7.85938 62.5211 5.22547 63.4253 3.29188 65.0678C1.34141 66.7244 0.265625 68.973 0.265625 71.3959C0.265625 72.0006 0.755 72.49 1.35969 72.49H47.6394C48.2441 72.49 48.7334 72.0006 48.7334 71.3959C48.7334 68.973 47.6577 66.7244 45.7058 65.065ZM42.9805 41.3261C43.0986 40.4683 43.1605 39.602 43.1605 38.7372V31.9675C45.1292 32.6341 46.5439 34.5128 46.5439 36.6714C46.5439 38.9228 45.0294 40.8353 42.9664 41.4372C42.972 41.4006 42.9762 41.3627 42.9805 41.3261ZM2.45375 36.6714C2.45375 34.5128 3.86844 32.6341 5.83719 31.9675V38.7372C5.83719 39.6034 5.89906 40.4683 6.01719 41.3261C6.02281 41.3627 6.02563 41.4006 6.03125 41.4372C3.96828 40.8339 2.45375 38.9228 2.45375 36.6714ZM41.1875 13.5948C41.2128 13.5667 41.2381 13.5372 41.2634 13.5091C41.3323 13.4303 41.3998 13.3516 41.4659 13.2728C41.4786 13.2573 41.4927 13.2419 41.5053 13.2278C42.0017 15.9939 42.508 20.8581 41.2761 25.8517C39.0978 25.4059 33.598 24.1937 27.6298 22.1842C33.8834 19.5967 38.4214 16.7223 41.1875 13.5948ZM8.28969 41.6777C8.28828 41.6664 8.28547 41.6537 8.28266 41.6425C8.10969 40.6848 8.02672 39.7103 8.02672 38.7372V28.023C8.03656 28.0216 8.04781 28.0187 8.05906 28.0159C9.75359 27.6784 11.4383 27.2833 13.1145 26.8642C14.8808 26.4226 16.6372 25.9445 18.3823 25.4256C19.5256 25.0853 20.6647 24.7281 21.7953 24.3498C21.8164 24.3428 21.8361 24.3358 21.8572 24.3287H27.1447C33.2464 26.3692 38.8503 27.5926 40.9738 28.0216V38.7358C40.9738 39.7075 40.888 40.6848 40.7164 41.6425C40.715 41.6537 40.7122 41.665 40.7108 41.6762C39.5914 47.8694 34.9972 52.8686 29.0277 54.5772C29.0178 54.58 29.008 54.5828 28.9981 54.5856C27.537 54.9962 26.0183 55.21 24.4995 55.21C22.985 55.21 21.455 55.0061 19.9995 54.5856C19.9925 54.5842 19.9869 54.5814 19.9798 54.58C14.0075 52.8728 9.41047 47.8722 8.28969 41.6777ZM2.55781 70.3005C2.81797 68.9491 3.56047 67.7101 4.70937 66.7328C6.24641 65.4264 8.37828 64.7078 10.7113 64.7078C16.3433 64.7078 19.6241 62.9992 19.7605 62.9261C20.1177 62.7362 20.3412 62.365 20.3412 61.96V56.9341C20.3441 57.3517 24.2773 57.3995 24.4981 57.3995C25.8959 57.3995 27.2909 57.2448 28.655 56.9341V61.9614C28.655 62.3664 28.8786 62.7376 29.2358 62.9275C29.3722 63.0006 32.653 64.7092 38.285 64.7092C40.618 64.7092 42.7498 65.4278 44.2869 66.7342C45.4372 67.7115 46.1783 68.9505 46.4384 70.3019H2.55781V70.3005Z" fill="#7A9CA5"/>
</g>
</svg>
