<svg width="73" height="75" viewBox="0 0 73 75" fill="none" xmlns="http://www.w3.org/2000/svg">
<path id="Icon" d="M11.4194 58.8591C11.1995 59.4173 10.6655 59.7568 10.0996 59.7568C9.92578 59.7568 9.74838 59.7248 9.57631 59.6555C4.14625 57.4992 0.85203 54.7279 0.0466578 51.6436C-0.152024 50.8846 0.302106 50.106 1.06136 49.9086C1.82061 49.7113 2.59582 50.1646 2.79273 50.9255C3.35152 53.0658 6.13308 55.2292 10.6247 57.0139C11.352 57.3019 11.7086 58.1285 11.4194 58.8591ZM16.2428 43.9713C16.5107 44.1988 16.8371 44.3108 17.1617 44.3108C17.5626 44.3108 17.9618 44.1402 18.242 43.8113C18.7512 43.214 18.6784 42.3163 18.0824 41.8061C17.3781 41.2053 16.6898 40.5689 16.0353 39.9129C9.79805 33.6627 6.53221 25.7184 7.52208 19.3864C10.183 18.9687 13.1278 19.3064 16.1115 20.3055C16.2375 20.3712 16.3759 20.4192 16.5195 20.4459C20.4914 21.8538 24.5147 24.4189 28.0059 27.9173C28.884 28.7973 29.7213 29.7323 30.4929 30.6923C30.9843 31.3038 31.8784 31.3998 32.4886 30.9074C33.0989 30.4149 33.1947 29.519 32.7033 28.9075C31.8678 27.8676 30.963 26.8579 30.0122 25.905C26.4253 22.3106 22.2884 19.6175 18.1285 18.0283C18.0274 15.456 18.462 13.1077 19.3827 11.2572C21.7261 11.7674 24.1511 13.1966 26.3313 15.36C26.0279 16.5742 25.7849 17.8292 25.6093 19.1162C25.5028 19.8948 26.0457 20.6112 26.8226 20.7179C27.5996 20.8245 28.3145 20.2806 28.421 19.502C29.3754 12.5336 32.3946 6.68332 36.5705 3.62754C40.7464 6.68332 43.7656 12.5318 44.72 19.4984C44.8264 20.277 45.5413 20.821 46.3183 20.7143C47.0953 20.6077 47.6382 19.8895 47.5317 19.1126C47.3561 17.8256 47.1131 16.5724 46.8097 15.36C48.9899 13.1966 51.4167 11.7674 53.7583 11.2572C54.6772 13.1077 55.1136 15.456 55.0125 18.0283C50.8525 19.6193 46.7157 22.3124 43.1288 25.905C42.1779 26.8579 41.2732 27.8676 40.4377 28.9075C39.9463 29.519 40.0421 30.4149 40.6523 30.9074C41.2626 31.3998 42.1567 31.3038 42.648 30.6923C43.4197 29.7323 44.257 28.7991 45.1351 27.9173C48.6262 24.4189 52.6478 21.852 56.6197 20.4459C56.7651 20.4192 56.9035 20.3712 57.0294 20.3055C60.0132 19.3082 62.958 18.9687 65.6189 19.3864C66.6088 25.7202 63.3429 33.6645 57.1057 39.9129C56.4511 40.5689 55.7628 41.2053 55.0586 41.8061C54.4625 42.3145 54.3898 43.2122 54.8971 43.8113C55.4045 44.4086 56.3003 44.4815 56.8982 43.9731C57.6592 43.3242 58.4042 42.6345 59.1121 41.9252C66.3214 34.7026 69.8923 25.2544 68.2142 17.8576C68.0936 17.3243 67.6785 16.9084 67.1445 16.7857C64.276 16.1315 61.0989 16.272 57.8614 17.1128C57.8313 13.9806 57.0862 11.1292 55.7061 8.93383C55.4151 8.47164 54.8847 8.21743 54.3419 8.27965C51.4912 8.61029 48.5429 10.0324 45.8926 12.3345C44.0601 7.20239 41.0568 3.06225 37.3244 0.708641C36.8632 0.417107 36.2742 0.417107 35.813 0.708641C32.0806 3.06225 29.0773 7.20239 27.2448 12.3345C24.5946 10.0324 21.6498 8.61029 18.7955 8.27965C18.2527 8.21743 17.7241 8.47164 17.4331 8.93383C16.0548 11.1292 15.3115 13.9806 15.2813 17.1128C12.0456 16.272 8.86673 16.1315 5.99826 16.7857C5.46607 16.9066 5.05097 17.3243 4.92856 17.8576C3.24864 25.2544 6.82137 34.7009 14.0307 41.9252C14.7367 42.6327 15.4818 43.3207 16.2428 43.9713ZM15.5705 55.0923C15.8295 54.351 15.4392 53.5404 14.6995 53.2809C10.4172 51.7805 7.8609 49.8838 7.8609 48.2092C7.8609 47.1266 8.97494 45.9036 10.9972 44.7641C11.6802 44.3802 11.9232 43.5127 11.5383 42.8283C11.1551 42.1439 10.2894 41.9003 9.60647 42.2861C6.56415 43.9997 5.02258 45.9925 5.02258 48.211C5.02258 51.2828 8.04539 53.9635 13.7628 55.9687C13.9172 56.0238 14.075 56.0487 14.2312 56.0487C14.8183 56.0469 15.3665 55.6789 15.5705 55.0923ZM58.1612 53.3804C57.4197 53.6328 57.0223 54.4399 57.2742 55.1847C57.4747 55.7767 58.0264 56.15 58.6171 56.15C58.7679 56.15 58.9222 56.1251 59.073 56.0735C64.9927 54.0595 68.1237 51.3397 68.1237 48.2092C68.1237 46.0707 66.6868 44.1384 63.8538 42.4656C63.1779 42.0674 62.3087 42.2914 61.9113 42.9687C61.514 43.646 61.7375 44.517 62.4134 44.9152C64.2654 46.0085 65.2854 47.1782 65.2854 48.2074C65.2836 49.9033 62.5553 51.8854 58.1612 53.3804ZM50.6468 63.7743C50.6468 65.2142 49.4777 66.3875 48.0391 66.3875C47.255 66.3875 46.6199 67.0239 46.6199 67.8096C46.6199 68.5953 47.255 69.2317 48.0391 69.2317C51.0424 69.2317 53.4851 66.7839 53.4851 63.7743C53.4851 62.9886 52.85 62.3522 52.0659 62.3522C51.2818 62.3522 50.6468 62.9886 50.6468 63.7743ZM71.9377 49.9086C71.1802 49.7113 70.4032 50.1646 70.2063 50.9255C69.6475 53.0675 66.8678 55.2292 62.3761 57.0139C61.647 57.3037 61.2905 58.1303 61.5796 58.8609C61.7996 59.4191 62.3353 59.7586 62.8994 59.7586C63.0733 59.7586 63.2507 59.7266 63.4227 59.6573C68.8528 57.4992 72.1488 54.7279 72.9542 51.6436C73.1511 50.8846 72.6952 50.1077 71.9377 49.9086ZM46.7192 50.5255C46.7192 51.3006 46.0913 51.9298 45.3178 51.9298C44.5337 51.9298 43.8987 52.5662 43.8987 53.352C43.8987 54.1377 44.5337 54.7741 45.3178 54.7741C47.6559 54.7741 49.5576 52.8684 49.5576 50.5255C49.5576 49.7398 48.9225 49.1034 48.1384 49.1034C47.3543 49.1034 46.7192 49.7416 46.7192 50.5255ZM42.664 41.4435H43.0348C43.8188 41.4435 44.4539 40.8071 44.4539 40.0214C44.4539 39.2356 43.8188 38.5992 43.0348 38.5992H42.664C41.8799 38.5992 41.2448 39.2356 41.2448 40.0214C41.2448 40.8071 41.8817 41.4435 42.664 41.4435ZM57.3239 57.7481C58.6242 59.556 59.3125 61.6874 59.3125 63.9112C59.3125 69.7437 54.5778 74.49 48.7557 74.49H24.3906C18.5702 74.49 13.8338 69.7454 13.8338 63.913C13.8338 60.043 15.9732 56.502 19.294 54.6568C18.8292 53.6044 18.572 52.4382 18.572 51.2152C18.572 47.4946 20.958 44.3215 24.277 43.1518C23.5444 42.0888 23.1133 40.8 23.1133 39.4116C23.1133 35.7763 26.0652 32.8183 29.6929 32.8183H43.4534C47.0811 32.8183 50.033 35.7763 50.033 39.4116C50.033 43.0469 47.0811 46.0049 43.4534 46.0049H29.6929C28.8095 46.0049 27.9668 45.8289 27.1952 45.5125C27.1632 45.5143 27.1295 45.5161 27.0976 45.5161C23.9613 45.5161 21.4103 48.0723 21.4103 51.2152C21.4103 52.3903 21.7669 53.4853 22.3789 54.3937C22.4268 54.4523 22.4711 54.5145 22.5102 54.5803C23.5462 55.9935 25.2172 56.9144 27.0976 56.9144H46.0487C49.185 56.9144 51.736 54.3581 51.736 51.2152C51.736 49.5229 50.9838 47.9248 49.6711 46.8315C49.068 46.3302 48.9864 45.4325 49.4866 44.8281C49.9869 44.2237 50.8827 44.142 51.4859 44.6433C53.4478 46.2787 54.5743 48.6732 54.5743 51.2134C54.5743 55.9242 50.7497 59.7568 46.0487 59.7568H27.0976C24.6407 59.7568 22.4232 58.7098 20.8657 57.037C18.3237 58.3543 16.6721 61.0065 16.6721 63.9112C16.6721 68.1758 20.1349 71.6458 24.3906 71.6458H48.7557C53.0114 71.6458 56.4742 68.1758 56.4742 63.913C56.4742 62.29 55.9722 60.7345 55.0213 59.4137C54.5636 58.7773 54.7073 57.8885 55.3424 57.4281C55.9775 56.9677 56.8645 57.1117 57.3239 57.7481ZM25.9516 39.4116C25.9516 41.479 27.6298 43.1607 29.6929 43.1607H43.4534C45.5165 43.1607 47.1947 41.479 47.1947 39.4116C47.1947 37.3442 45.5165 35.6626 43.4534 35.6626H29.6929C27.6298 35.6626 25.9516 37.3442 25.9516 39.4116Z" fill="#7A9CA5"/>
</svg>
