<svg width="15" height="15" viewBox="0 0 15 15" fill="none" xmlns="http://www.w3.org/2000/svg">
<path d="M4.0127 14.5H1.10645V5.15625H4.0127V14.5ZM2.54395 3.90625C1.6377 3.90625 0.887695 3.125 0.887695 2.1875C0.887695 1.28125 1.6377 0.53125 2.54395 0.53125C3.48145 0.53125 4.23145 1.28125 4.23145 2.1875C4.23145 3.125 3.48145 3.90625 2.54395 3.90625ZM14.8564 14.5H11.9814V9.96875C11.9814 8.875 11.9502 7.5 10.4502 7.5C8.9502 7.5 8.73145 8.65625 8.73145 9.875V14.5H5.8252V5.15625H8.60645V6.4375H8.6377C9.04395 5.71875 9.98145 4.9375 11.3877 4.9375C14.3252 4.9375 14.8877 6.875 14.8877 9.375V14.5H14.8564Z" fill="#141414"/>
</svg>
