<svg width="191" height="36" viewBox="0 0 191 36" fill="none" xmlns="http://www.w3.org/2000/svg">
<path d="M45.952 9.676C46.4373 9.69467 47.072 9.71333 47.856 9.732C48.64 9.75067 49.424 9.76 50.208 9.76C51.104 9.76 51.972 9.75067 52.812 9.732C53.652 9.71333 54.2493 9.704 54.604 9.704C56.9187 9.704 58.6453 10.1147 59.784 10.936C60.9413 11.7573 61.52 12.812 61.52 14.1C61.52 14.7533 61.324 15.416 60.932 16.088C60.54 16.76 59.9333 17.3573 59.112 17.88C58.2907 18.4027 57.2267 18.7853 55.92 19.028V19.084C57.6747 19.2147 59.0653 19.532 60.092 20.036C61.1187 20.54 61.856 21.1467 62.304 21.856C62.752 22.5653 62.976 23.3027 62.976 24.068C62.976 25.244 62.668 26.2333 62.052 27.036C61.436 27.8387 60.5493 28.4547 59.392 28.884C58.2347 29.2947 56.8533 29.5 55.248 29.5C54.8 29.5 54.156 29.4907 53.316 29.472C52.476 29.4347 51.4587 29.416 50.264 29.416C49.4427 29.416 48.64 29.4253 47.856 29.444C47.072 29.444 46.4373 29.4627 45.952 29.5V28.94C46.5493 28.9027 46.9973 28.828 47.296 28.716C47.5947 28.604 47.7907 28.38 47.884 28.044C47.996 27.708 48.052 27.204 48.052 26.532V12.644C48.052 11.9533 47.996 11.4493 47.884 11.132C47.7907 10.796 47.5853 10.572 47.268 10.46C46.9693 10.3293 46.5307 10.2547 45.952 10.236V9.676ZM54.24 10.236C53.512 10.236 53.036 10.3947 52.812 10.712C52.6067 11.0293 52.504 11.6733 52.504 12.644V26.532C52.504 27.1853 52.5507 27.68 52.644 28.016C52.756 28.352 52.9427 28.576 53.204 28.688C53.484 28.8 53.8947 28.856 54.436 28.856C55.78 28.856 56.76 28.436 57.376 27.596C58.0107 26.7373 58.328 25.524 58.328 23.956C58.328 22.5187 57.964 21.408 57.236 20.624C56.5267 19.84 55.3413 19.448 53.68 19.448H51.3C51.3 19.448 51.3 19.3733 51.3 19.224C51.3 19.056 51.3 18.972 51.3 18.972H53.708C54.5853 18.972 55.2573 18.7667 55.724 18.356C56.1907 17.9267 56.5173 17.3667 56.704 16.676C56.8907 15.9667 56.984 15.2107 56.984 14.408C56.984 13.0267 56.7693 11.9907 56.34 11.3C55.9107 10.5907 55.2107 10.236 54.24 10.236ZM71.7085 14.632C73.3512 14.632 74.6392 15.1173 75.5725 16.088C76.5058 17.0587 76.9725 18.6453 76.9725 20.848H67.7605L67.7045 20.316H73.4445C73.4632 19.4013 73.4072 18.5613 73.2765 17.796C73.1458 17.012 72.9405 16.3867 72.6605 15.92C72.3805 15.4533 72.0072 15.22 71.5405 15.22C70.8872 15.22 70.3272 15.6307 69.8605 16.452C69.4125 17.2733 69.1418 18.636 69.0485 20.54L69.1325 20.708C69.1138 20.932 69.0952 21.1653 69.0765 21.408C69.0765 21.6507 69.0765 21.9027 69.0765 22.164C69.0765 23.452 69.2538 24.4973 69.6085 25.3C69.9818 26.1027 70.4485 26.6907 71.0085 27.064C71.5685 27.4187 72.1378 27.596 72.7165 27.596C73.1085 27.596 73.5098 27.54 73.9205 27.428C74.3498 27.2973 74.7792 27.0733 75.2085 26.756C75.6378 26.42 76.0392 25.9533 76.4125 25.356L76.9165 25.524C76.6925 26.2333 76.3378 26.924 75.8525 27.596C75.3672 28.268 74.7512 28.8187 74.0045 29.248C73.2578 29.6773 72.3618 29.892 71.3165 29.892C70.0472 29.892 68.9272 29.6213 67.9565 29.08C66.9858 28.5387 66.2205 27.7173 65.6605 26.616C65.1192 25.5147 64.8485 24.1147 64.8485 22.416C64.8485 20.68 65.1378 19.2333 65.7165 18.076C66.3138 16.9187 67.1258 16.06 68.1525 15.5C69.1978 14.9213 70.3832 14.632 71.7085 14.632ZM82.4579 29.696C81.6179 29.696 80.9179 29.5373 80.3579 29.22C79.7979 28.9027 79.3872 28.4827 79.1259 27.96C78.8645 27.4187 78.7339 26.8307 78.7339 26.196C78.7339 25.3933 78.9112 24.74 79.2659 24.236C79.6392 23.732 80.1152 23.3213 80.6939 23.004C81.2725 22.6867 81.8792 22.4253 82.5139 22.22C83.1672 22.0147 83.7832 21.8187 84.3619 21.632C84.9592 21.4267 85.4352 21.1933 85.7899 20.932C86.1632 20.652 86.3499 20.2973 86.3499 19.868V17.684C86.3499 17.1987 86.2659 16.7693 86.0979 16.396C85.9485 16.004 85.7059 15.7053 85.3699 15.5C85.0525 15.2947 84.6325 15.192 84.1099 15.192C83.7365 15.192 83.3632 15.248 82.9899 15.36C82.6165 15.4533 82.3085 15.6213 82.0659 15.864C82.5885 16.0507 82.9899 16.34 83.2699 16.732C83.5685 17.1053 83.7179 17.5347 83.7179 18.02C83.7179 18.6547 83.4939 19.1587 83.0459 19.532C82.6165 19.9053 82.1032 20.092 81.5059 20.092C80.8339 20.092 80.3205 19.8867 79.9659 19.476C79.6299 19.0467 79.4619 18.5333 79.4619 17.936C79.4619 17.3947 79.5925 16.9467 79.8539 16.592C80.1339 16.2373 80.5165 15.9013 81.0019 15.584C81.5245 15.2853 82.1499 15.052 82.8779 14.884C83.6245 14.716 84.4272 14.632 85.2859 14.632C86.1445 14.632 86.9192 14.7253 87.6099 14.912C88.3005 15.08 88.8792 15.3973 89.3459 15.864C89.7752 16.2933 90.0552 16.8253 90.1859 17.46C90.3165 18.076 90.3819 18.86 90.3819 19.812V27.428C90.3819 27.8947 90.4285 28.2213 90.5219 28.408C90.6152 28.576 90.7739 28.66 90.9979 28.66C91.1659 28.66 91.3245 28.6133 91.4739 28.52C91.6419 28.4267 91.8192 28.3147 92.0059 28.184L92.2859 28.66C91.8939 28.996 91.4365 29.2573 90.9139 29.444C90.4099 29.612 89.8405 29.696 89.2059 29.696C88.5152 29.696 87.9645 29.6027 87.5539 29.416C87.1432 29.2107 86.8445 28.94 86.6579 28.604C86.4899 28.268 86.4059 27.876 86.4059 27.428C85.9579 28.1373 85.4165 28.6973 84.7819 29.108C84.1472 29.5 83.3725 29.696 82.4579 29.696ZM84.4459 27.904C84.8192 27.904 85.1552 27.82 85.4539 27.652C85.7712 27.4653 86.0699 27.1667 86.3499 26.756V21.016C86.1819 21.296 85.9485 21.548 85.6499 21.772C85.3512 21.996 85.0339 22.2293 84.6979 22.472C84.3619 22.696 84.0352 22.948 83.7179 23.228C83.4192 23.508 83.1765 23.8533 82.9899 24.264C82.8032 24.6747 82.7099 25.1693 82.7099 25.748C82.7099 26.476 82.8685 27.0173 83.1859 27.372C83.5032 27.7267 83.9232 27.904 84.4459 27.904ZM107.03 14.716V26.448C107.03 27.288 107.161 27.9133 107.422 28.324C107.683 28.716 108.15 28.912 108.822 28.912V29.5C108.243 29.444 107.665 29.416 107.086 29.416C106.302 29.416 105.574 29.444 104.902 29.5C104.23 29.556 103.595 29.6587 102.998 29.808V27.288C102.55 28.2213 101.925 28.8933 101.122 29.304C100.338 29.696 99.4607 29.892 98.4901 29.892C97.7061 29.892 97.0714 29.7893 96.5861 29.584C96.1007 29.3787 95.7181 29.1173 95.4381 28.8C95.1207 28.4453 94.8967 27.9787 94.7661 27.4C94.6354 26.8213 94.5701 26.0747 94.5701 25.16V18.076C94.5701 17.236 94.4394 16.62 94.1781 16.228C93.9354 15.8173 93.4687 15.612 92.7781 15.612V15.024C93.3754 15.08 93.9541 15.108 94.5141 15.108C95.2981 15.108 96.0261 15.08 96.6981 15.024C97.3887 14.9493 98.0234 14.8467 98.6021 14.716V26.308C98.6021 26.7747 98.6394 27.1853 98.7141 27.54C98.8074 27.8947 98.9754 28.1747 99.2181 28.38C99.4607 28.5667 99.8154 28.66 100.282 28.66C100.786 28.66 101.234 28.52 101.626 28.24C102.037 27.96 102.363 27.5773 102.606 27.092C102.867 26.588 102.998 26.028 102.998 25.412V18.076C102.998 17.236 102.867 16.62 102.606 16.228C102.363 15.8173 101.897 15.612 101.206 15.612V15.024C101.803 15.08 102.382 15.108 102.942 15.108C103.726 15.108 104.454 15.08 105.126 15.024C105.817 14.9493 106.451 14.8467 107.03 14.716ZM115.751 10.432V15.024H119.055V15.584H115.751V26.896C115.751 27.456 115.853 27.8573 116.059 28.1C116.264 28.324 116.572 28.436 116.983 28.436C117.319 28.436 117.655 28.3147 117.991 28.072C118.327 27.8107 118.625 27.372 118.887 26.756L119.363 27.008C119.064 27.848 118.607 28.5387 117.991 29.08C117.393 29.6213 116.572 29.892 115.527 29.892C114.911 29.892 114.369 29.808 113.903 29.64C113.436 29.4907 113.044 29.2573 112.727 28.94C112.316 28.5293 112.045 28.0253 111.915 27.428C111.784 26.812 111.719 26.0187 111.719 25.048V15.584H109.367V15.024H111.719V11.328C112.503 11.328 113.221 11.2627 113.875 11.132C114.547 10.9827 115.172 10.7493 115.751 10.432ZM133.602 15.024V15.584C133.248 15.6773 132.912 15.9013 132.594 16.256C132.277 16.592 131.969 17.1707 131.67 17.992L127.722 29.08L126.686 31.04L120.582 17.18C120.265 16.452 119.948 16.0133 119.63 15.864C119.332 15.696 119.07 15.612 118.846 15.612V15.024C119.462 15.08 120.097 15.1267 120.75 15.164C121.422 15.1827 122.066 15.192 122.682 15.192C123.448 15.192 124.148 15.1733 124.782 15.136C125.417 15.0987 126.014 15.0613 126.574 15.024V15.612C126.201 15.612 125.846 15.64 125.51 15.696C125.193 15.7333 124.969 15.864 124.838 16.088C124.726 16.2933 124.782 16.6573 125.006 17.18L128.534 25.692L128.282 25.86L130.354 20.064C130.709 19.056 130.858 18.2347 130.802 17.6C130.746 16.9467 130.541 16.4613 130.186 16.144C129.832 15.808 129.346 15.6213 128.73 15.584V15.024C129.029 15.0427 129.337 15.0613 129.654 15.08C129.972 15.08 130.289 15.0893 130.606 15.108C130.924 15.108 131.204 15.108 131.446 15.108C131.82 15.108 132.212 15.0987 132.622 15.08C133.033 15.0613 133.36 15.0427 133.602 15.024ZM127.722 29.08L126.658 32.076C126.472 32.5427 126.276 32.9347 126.07 33.252C125.884 33.588 125.669 33.8587 125.426 34.064C125.165 34.288 124.829 34.456 124.418 34.568C124.008 34.6987 123.532 34.764 122.99 34.764C122.542 34.764 122.076 34.6893 121.59 34.54C121.124 34.3907 120.732 34.148 120.414 33.812C120.097 33.476 119.938 33.0467 119.938 32.524C119.938 31.9453 120.144 31.4787 120.554 31.124C120.965 30.788 121.506 30.62 122.178 30.62C122.794 30.62 123.298 30.7693 123.69 31.068C124.082 31.3667 124.278 31.8053 124.278 32.384C124.278 32.7573 124.157 33.112 123.914 33.448C123.69 33.784 123.345 34.036 122.878 34.204C122.972 34.2227 123.084 34.232 123.214 34.232C123.345 34.232 123.448 34.232 123.522 34.232C124.082 34.232 124.577 34.0547 125.006 33.7C125.436 33.3453 125.79 32.7853 126.07 32.02L127.05 29.136L127.722 29.08ZM144.846 14.632C145.63 14.632 146.264 14.7347 146.75 14.94C147.254 15.1267 147.646 15.388 147.926 15.724C148.224 16.0787 148.439 16.536 148.57 17.096C148.719 17.656 148.794 18.412 148.794 19.364V26.896C148.794 27.68 148.924 28.212 149.186 28.492C149.466 28.772 149.932 28.912 150.586 28.912V29.5C150.231 29.4813 149.699 29.4627 148.99 29.444C148.28 29.4067 147.58 29.388 146.89 29.388C146.18 29.388 145.48 29.4067 144.79 29.444C144.118 29.4627 143.604 29.4813 143.25 29.5V28.912C143.81 28.912 144.202 28.772 144.426 28.492C144.65 28.212 144.762 27.68 144.762 26.896V18.188C144.762 17.7213 144.715 17.32 144.622 16.984C144.528 16.6293 144.36 16.3587 144.118 16.172C143.875 15.9667 143.511 15.864 143.026 15.864C142.522 15.864 142.055 16.004 141.626 16.284C141.215 16.564 140.879 16.956 140.618 17.46C140.375 17.9453 140.254 18.496 140.254 19.112V26.896C140.254 27.68 140.366 28.212 140.59 28.492C140.832 28.772 141.224 28.912 141.766 28.912V29.5C141.43 29.4813 140.935 29.4627 140.282 29.444C139.647 29.4067 138.984 29.388 138.294 29.388C137.584 29.388 136.856 29.4067 136.11 29.444C135.363 29.4627 134.803 29.4813 134.43 29.5V28.912C135.083 28.912 135.54 28.772 135.802 28.492C136.082 28.212 136.222 27.68 136.222 26.896V18.076C136.222 17.236 136.091 16.62 135.83 16.228C135.587 15.8173 135.12 15.612 134.43 15.612V15.024C135.027 15.08 135.606 15.108 136.166 15.108C136.95 15.108 137.678 15.08 138.35 15.024C139.04 14.9493 139.675 14.8467 140.254 14.716V17.236C140.72 16.284 141.355 15.612 142.158 15.22C142.96 14.828 143.856 14.632 144.846 14.632ZM158.853 14.632C160.496 14.632 161.784 15.1173 162.717 16.088C163.65 17.0587 164.117 18.6453 164.117 20.848H154.905L154.849 20.316H160.589C160.608 19.4013 160.552 18.5613 160.421 17.796C160.29 17.012 160.085 16.3867 159.805 15.92C159.525 15.4533 159.152 15.22 158.685 15.22C158.032 15.22 157.472 15.6307 157.005 16.452C156.557 17.2733 156.286 18.636 156.193 20.54L156.277 20.708C156.258 20.932 156.24 21.1653 156.221 21.408C156.221 21.6507 156.221 21.9027 156.221 22.164C156.221 23.452 156.398 24.4973 156.753 25.3C157.126 26.1027 157.593 26.6907 158.153 27.064C158.713 27.4187 159.282 27.596 159.861 27.596C160.253 27.596 160.654 27.54 161.065 27.428C161.494 27.2973 161.924 27.0733 162.353 26.756C162.782 26.42 163.184 25.9533 163.557 25.356L164.061 25.524C163.837 26.2333 163.482 26.924 162.997 27.596C162.512 28.268 161.896 28.8187 161.149 29.248C160.402 29.6773 159.506 29.892 158.461 29.892C157.192 29.892 156.072 29.6213 155.101 29.08C154.13 28.5387 153.365 27.7173 152.805 26.616C152.264 25.5147 151.993 24.1147 151.993 22.416C151.993 20.68 152.282 19.2333 152.861 18.076C153.458 16.9187 154.27 16.06 155.297 15.5C156.342 14.9213 157.528 14.632 158.853 14.632ZM171.282 14.632C172.066 14.632 172.748 14.7347 173.326 14.94C173.924 15.1267 174.353 15.3133 174.614 15.5C175.249 15.9293 175.641 15.6493 175.79 14.66H176.378C176.341 15.1827 176.313 15.8267 176.294 16.592C176.276 17.3387 176.266 18.3373 176.266 19.588H175.678C175.585 18.8973 175.408 18.216 175.146 17.544C174.885 16.872 174.502 16.3213 173.998 15.892C173.513 15.4627 172.878 15.248 172.094 15.248C171.553 15.248 171.096 15.4067 170.722 15.724C170.349 16.0227 170.162 16.4613 170.162 17.04C170.162 17.6 170.33 18.0947 170.666 18.524C171.002 18.9347 171.432 19.336 171.954 19.728C172.496 20.1013 173.056 20.5027 173.634 20.932C174.25 21.3987 174.81 21.8653 175.314 22.332C175.818 22.78 176.22 23.2747 176.518 23.816C176.817 24.3573 176.966 25.0013 176.966 25.748C176.966 26.588 176.724 27.3253 176.238 27.96C175.753 28.576 175.109 29.052 174.306 29.388C173.522 29.724 172.645 29.892 171.674 29.892C171.114 29.892 170.61 29.836 170.162 29.724C169.733 29.612 169.36 29.472 169.042 29.304C168.8 29.192 168.566 29.0893 168.342 28.996C168.137 28.884 167.941 28.7907 167.754 28.716C167.568 28.66 167.4 28.7253 167.25 28.912C167.12 29.0987 167.017 29.36 166.942 29.696H166.354C166.392 29.0987 166.42 28.3707 166.438 27.512C166.457 26.6533 166.466 25.5147 166.466 24.096H167.054C167.166 25.104 167.372 26 167.67 26.784C167.969 27.5493 168.37 28.156 168.874 28.604C169.397 29.0333 170.05 29.248 170.834 29.248C171.152 29.248 171.46 29.1827 171.758 29.052C172.057 28.9213 172.3 28.7067 172.486 28.408C172.692 28.1093 172.794 27.7267 172.794 27.26C172.794 26.4387 172.524 25.7573 171.982 25.216C171.46 24.6747 170.788 24.0867 169.966 23.452C169.369 22.9667 168.8 22.4907 168.258 22.024C167.736 21.5387 167.306 21.016 166.97 20.456C166.634 19.8773 166.466 19.224 166.466 18.496C166.466 17.656 166.69 16.9467 167.138 16.368C167.586 15.7893 168.174 15.36 168.902 15.08C169.649 14.7813 170.442 14.632 171.282 14.632ZM184.216 14.632C185 14.632 185.681 14.7347 186.26 14.94C186.857 15.1267 187.287 15.3133 187.548 15.5C188.183 15.9293 188.575 15.6493 188.724 14.66H189.312C189.275 15.1827 189.247 15.8267 189.228 16.592C189.209 17.3387 189.2 18.3373 189.2 19.588H188.612C188.519 18.8973 188.341 18.216 188.08 17.544C187.819 16.872 187.436 16.3213 186.932 15.892C186.447 15.4627 185.812 15.248 185.028 15.248C184.487 15.248 184.029 15.4067 183.656 15.724C183.283 16.0227 183.096 16.4613 183.096 17.04C183.096 17.6 183.264 18.0947 183.6 18.524C183.936 18.9347 184.365 19.336 184.888 19.728C185.429 20.1013 185.989 20.5027 186.568 20.932C187.184 21.3987 187.744 21.8653 188.248 22.332C188.752 22.78 189.153 23.2747 189.452 23.816C189.751 24.3573 189.9 25.0013 189.9 25.748C189.9 26.588 189.657 27.3253 189.172 27.96C188.687 28.576 188.043 29.052 187.24 29.388C186.456 29.724 185.579 29.892 184.608 29.892C184.048 29.892 183.544 29.836 183.096 29.724C182.667 29.612 182.293 29.472 181.976 29.304C181.733 29.192 181.5 29.0893 181.276 28.996C181.071 28.884 180.875 28.7907 180.688 28.716C180.501 28.66 180.333 28.7253 180.184 28.912C180.053 29.0987 179.951 29.36 179.876 29.696H179.288C179.325 29.0987 179.353 28.3707 179.372 27.512C179.391 26.6533 179.4 25.5147 179.4 24.096H179.988C180.1 25.104 180.305 26 180.604 26.784C180.903 27.5493 181.304 28.156 181.808 28.604C182.331 29.0333 182.984 29.248 183.768 29.248C184.085 29.248 184.393 29.1827 184.692 29.052C184.991 28.9213 185.233 28.7067 185.42 28.408C185.625 28.1093 185.728 27.7267 185.728 27.26C185.728 26.4387 185.457 25.7573 184.916 25.216C184.393 24.6747 183.721 24.0867 182.9 23.452C182.303 22.9667 181.733 22.4907 181.192 22.024C180.669 21.5387 180.24 21.016 179.904 20.456C179.568 19.8773 179.4 19.224 179.4 18.496C179.4 17.656 179.624 16.9467 180.072 16.368C180.52 15.7893 181.108 15.36 181.836 15.08C182.583 14.7813 183.376 14.632 184.216 14.632Z" fill="#141414"/>
<circle cx="16.5" cy="19" r="15.25" stroke="#7A9CA5" stroke-width="2.5"/>
<path d="M24.766 14.6842C24.8916 15.9888 24.4194 17.2969 23.4533 18.3209L17.6715 24.4674L9.70748 25.2339L9.03718 18.2696L14.8292 12.1303C15.7953 11.1063 17.1761 10.4504 18.6679 10.3068L23.8855 10.4318L24.766 14.6842Z" stroke="#7A9CA5" stroke-width="2.5" stroke-linecap="round" stroke-linejoin="round"/>
<path d="M20 14.5L5 29.5" stroke="#7A9CA5" stroke-width="2.5" stroke-linecap="round" stroke-linejoin="round"/>
<path d="M21 20.5H14" stroke="#7A9CA5" stroke-width="2.5" stroke-linecap="round" stroke-linejoin="round"/>
<path d="M20 14.5H13" stroke="#7A9CA5" stroke-width="2.5" stroke-linecap="round" stroke-linejoin="round"/>
</svg>
