<svg width="299" height="65" viewBox="0 0 299 65" fill="none" xmlns="http://www.w3.org/2000/svg">
<circle cx="33" cy="32.5" r="30" stroke="#5C8692" stroke-width="5"/>
<path d="M49.2812 23.999C49.5285 26.5686 48.5984 29.1452 46.6956 31.1621L35.307 43.2689L19.6204 44.7787L18.3001 31.061L29.7087 18.9686C31.6115 16.9516 34.3313 15.6597 37.2696 15.3769L47.5468 15.6229L49.2812 23.999Z" stroke="#5C8692" stroke-width="5" stroke-linecap="round" stroke-linejoin="round"/>
<path d="M39.8941 23.6367L10.3486 53.1822" stroke="#5C8692" stroke-width="5" stroke-linecap="round" stroke-linejoin="round"/>
<path d="M41.8641 35.4551H28.0762" stroke="#5C8692" stroke-width="5" stroke-linecap="round" stroke-linejoin="round"/>
<path d="M39.8943 23.6367H26.1064" stroke="#5C8692" stroke-width="5" stroke-linecap="round" stroke-linejoin="round"/>
<path d="M83.86 17.68C84.5533 17.7067 85.46 17.7333 86.58 17.76C87.7 17.7867 88.82 17.8 89.94 17.8C91.22 17.8 92.46 17.7867 93.66 17.76C94.86 17.7333 95.7133 17.72 96.22 17.72C99.5267 17.72 101.993 18.3067 103.62 19.48C105.273 20.6533 106.1 22.16 106.1 24C106.1 24.9333 105.82 25.88 105.26 26.84C104.7 27.8 103.833 28.6533 102.66 29.4C101.487 30.1467 99.9667 30.6933 98.1 31.04V31.12C100.607 31.3067 102.593 31.76 104.06 32.48C105.527 33.2 106.58 34.0667 107.22 35.08C107.86 36.0933 108.18 37.1467 108.18 38.24C108.18 39.92 107.74 41.3333 106.86 42.48C105.98 43.6267 104.713 44.5067 103.06 45.12C101.407 45.7067 99.4333 46 97.14 46C96.5 46 95.58 45.9867 94.38 45.96C93.18 45.9067 91.7267 45.88 90.02 45.88C88.8467 45.88 87.7 45.8933 86.58 45.92C85.46 45.92 84.5533 45.9467 83.86 46V45.2C84.7133 45.1467 85.3533 45.04 85.78 44.88C86.2067 44.72 86.4867 44.4 86.62 43.92C86.78 43.44 86.86 42.72 86.86 41.76V21.92C86.86 20.9333 86.78 20.2133 86.62 19.76C86.4867 19.28 86.1933 18.96 85.74 18.8C85.3133 18.6133 84.6867 18.5067 83.86 18.48V17.68ZM95.7 18.48C94.66 18.48 93.98 18.7067 93.66 19.16C93.3667 19.6133 93.22 20.5333 93.22 21.92V41.76C93.22 42.6933 93.2867 43.4 93.42 43.88C93.58 44.36 93.8467 44.68 94.22 44.84C94.62 45 95.2067 45.08 95.98 45.08C97.9 45.08 99.3 44.48 100.18 43.28C101.087 42.0533 101.54 40.32 101.54 38.08C101.54 36.0267 101.02 34.44 99.98 33.32C98.9667 32.2 97.2733 31.64 94.9 31.64H91.5C91.5 31.64 91.5 31.5333 91.5 31.32C91.5 31.08 91.5 30.96 91.5 30.96H94.94C96.1933 30.96 97.1533 30.6667 97.82 30.08C98.4867 29.4667 98.9533 28.6667 99.22 27.68C99.4867 26.6667 99.62 25.5867 99.62 24.44C99.62 22.4667 99.3133 20.9867 98.7 20C98.0867 18.9867 97.0867 18.48 95.7 18.48ZM121.455 24.76C123.802 24.76 125.642 25.4533 126.975 26.84C128.308 28.2267 128.975 30.4933 128.975 33.64H115.815L115.735 32.88H123.935C123.962 31.5733 123.882 30.3733 123.695 29.28C123.508 28.16 123.215 27.2667 122.815 26.6C122.415 25.9333 121.882 25.6 121.215 25.6C120.282 25.6 119.482 26.1867 118.815 27.36C118.175 28.5333 117.788 30.48 117.655 33.2L117.775 33.44C117.748 33.76 117.722 34.0933 117.695 34.44C117.695 34.7867 117.695 35.1467 117.695 35.52C117.695 37.36 117.948 38.8533 118.455 40C118.988 41.1467 119.655 41.9867 120.455 42.52C121.255 43.0267 122.068 43.28 122.895 43.28C123.455 43.28 124.028 43.2 124.615 43.04C125.228 42.8533 125.842 42.5333 126.455 42.08C127.068 41.6 127.642 40.9333 128.175 40.08L128.895 40.32C128.575 41.3333 128.068 42.32 127.375 43.28C126.682 44.24 125.802 45.0267 124.735 45.64C123.668 46.2533 122.388 46.56 120.895 46.56C119.082 46.56 117.482 46.1733 116.095 45.4C114.708 44.6267 113.615 43.4533 112.815 41.88C112.042 40.3067 111.655 38.3067 111.655 35.88C111.655 33.4 112.068 31.3333 112.895 29.68C113.748 28.0267 114.908 26.8 116.375 26C117.868 25.1733 119.562 24.76 121.455 24.76ZM137.611 46.28C136.411 46.28 135.411 46.0533 134.611 45.6C133.811 45.1467 133.225 44.5467 132.851 43.8C132.478 43.0267 132.291 42.1867 132.291 41.28C132.291 40.1333 132.545 39.2 133.051 38.48C133.585 37.76 134.265 37.1733 135.091 36.72C135.918 36.2667 136.785 35.8933 137.691 35.6C138.625 35.3067 139.505 35.0267 140.331 34.76C141.185 34.4667 141.865 34.1333 142.371 33.76C142.905 33.36 143.171 32.8533 143.171 32.24V29.12C143.171 28.4267 143.051 27.8133 142.811 27.28C142.598 26.72 142.251 26.2933 141.771 26C141.318 25.7067 140.718 25.56 139.971 25.56C139.438 25.56 138.905 25.64 138.371 25.8C137.838 25.9333 137.398 26.1733 137.051 26.52C137.798 26.7867 138.371 27.2 138.771 27.76C139.198 28.2933 139.411 28.9067 139.411 29.6C139.411 30.5067 139.091 31.2267 138.451 31.76C137.838 32.2933 137.105 32.56 136.251 32.56C135.291 32.56 134.558 32.2667 134.051 31.68C133.571 31.0667 133.331 30.3333 133.331 29.48C133.331 28.7067 133.518 28.0667 133.891 27.56C134.291 27.0533 134.838 26.5733 135.531 26.12C136.278 25.6933 137.171 25.36 138.211 25.12C139.278 24.88 140.425 24.76 141.651 24.76C142.878 24.76 143.985 24.8933 144.971 25.16C145.958 25.4 146.785 25.8533 147.451 26.52C148.065 27.1333 148.465 27.8933 148.651 28.8C148.838 29.68 148.931 30.8 148.931 32.16V43.04C148.931 43.7067 148.998 44.1733 149.131 44.44C149.265 44.68 149.491 44.8 149.811 44.8C150.051 44.8 150.278 44.7333 150.491 44.6C150.731 44.4667 150.985 44.3067 151.251 44.12L151.651 44.8C151.091 45.28 150.438 45.6533 149.691 45.92C148.971 46.16 148.158 46.28 147.251 46.28C146.265 46.28 145.478 46.1467 144.891 45.88C144.305 45.5867 143.878 45.2 143.611 44.72C143.371 44.24 143.251 43.68 143.251 43.04C142.611 44.0533 141.838 44.8533 140.931 45.44C140.025 46 138.918 46.28 137.611 46.28ZM140.451 43.72C140.985 43.72 141.465 43.6 141.891 43.36C142.345 43.0933 142.771 42.6667 143.171 42.08V33.88C142.931 34.28 142.598 34.64 142.171 34.96C141.745 35.28 141.291 35.6133 140.811 35.96C140.331 36.28 139.865 36.64 139.411 37.04C138.985 37.44 138.638 37.9333 138.371 38.52C138.105 39.1067 137.971 39.8133 137.971 40.64C137.971 41.68 138.198 42.4533 138.651 42.96C139.105 43.4667 139.705 43.72 140.451 43.72ZM173.514 24.88V41.64C173.514 42.84 173.701 43.7333 174.074 44.32C174.448 44.88 175.114 45.16 176.074 45.16V46C175.248 45.92 174.421 45.88 173.594 45.88C172.474 45.88 171.434 45.92 170.474 46C169.514 46.08 168.608 46.2267 167.754 46.44V42.84C167.114 44.1733 166.221 45.1333 165.074 45.72C163.954 46.28 162.701 46.56 161.314 46.56C160.194 46.56 159.288 46.4133 158.594 46.12C157.901 45.8267 157.354 45.4533 156.954 45C156.501 44.4933 156.181 43.8267 155.994 43C155.808 42.1733 155.714 41.1067 155.714 39.8V29.68C155.714 28.48 155.528 27.6 155.154 27.04C154.808 26.4533 154.141 26.16 153.154 26.16V25.32C154.008 25.4 154.834 25.44 155.634 25.44C156.754 25.44 157.794 25.4 158.754 25.32C159.741 25.2133 160.648 25.0667 161.474 24.88V41.44C161.474 42.1067 161.528 42.6933 161.634 43.2C161.768 43.7067 162.008 44.1067 162.354 44.4C162.701 44.6667 163.208 44.8 163.874 44.8C164.594 44.8 165.234 44.6 165.794 44.2C166.381 43.8 166.848 43.2533 167.194 42.56C167.568 41.84 167.754 41.04 167.754 40.16V29.68C167.754 28.48 167.568 27.6 167.194 27.04C166.848 26.4533 166.181 26.16 165.194 26.16V25.32C166.048 25.4 166.874 25.44 167.674 25.44C168.794 25.44 169.834 25.4 170.794 25.32C171.781 25.2133 172.688 25.0667 173.514 24.88ZM186.772 18.76V25.32H191.492V26.12H186.772V42.28C186.772 43.08 186.919 43.6533 187.212 44C187.506 44.32 187.946 44.48 188.532 44.48C189.012 44.48 189.492 44.3067 189.972 43.96C190.452 43.5867 190.879 42.96 191.252 42.08L191.932 42.44C191.506 43.64 190.852 44.6267 189.972 45.4C189.119 46.1733 187.946 46.56 186.452 46.56C185.572 46.56 184.799 46.44 184.132 46.2C183.466 45.9867 182.906 45.6533 182.452 45.2C181.866 44.6133 181.479 43.8933 181.292 43.04C181.106 42.16 181.012 41.0267 181.012 39.64V26.12H177.652V25.32H181.012V20.04C182.132 20.04 183.159 19.9467 184.092 19.76C185.052 19.5467 185.946 19.2133 186.772 18.76ZM213.075 25.32V26.12C212.568 26.2533 212.088 26.5733 211.635 27.08C211.181 27.56 210.741 28.3867 210.315 29.56L204.675 45.4L203.195 48.2L194.475 28.4C194.021 27.36 193.568 26.7333 193.115 26.52C192.688 26.28 192.315 26.16 191.995 26.16V25.32C192.875 25.4 193.781 25.4667 194.715 25.52C195.675 25.5467 196.595 25.56 197.475 25.56C198.568 25.56 199.568 25.5333 200.475 25.48C201.381 25.4267 202.235 25.3733 203.035 25.32V26.16C202.501 26.16 201.995 26.2 201.515 26.28C201.061 26.3333 200.741 26.52 200.555 26.84C200.395 27.1333 200.475 27.6533 200.795 28.4L205.835 40.56L205.475 40.8L208.435 32.52C208.941 31.08 209.155 29.9067 209.075 29C208.995 28.0667 208.701 27.3733 208.195 26.92C207.688 26.44 206.995 26.1733 206.115 26.12V25.32C206.541 25.3467 206.981 25.3733 207.435 25.4C207.888 25.4 208.341 25.4133 208.795 25.44C209.248 25.44 209.648 25.44 209.995 25.44C210.528 25.44 211.088 25.4267 211.675 25.4C212.261 25.3733 212.728 25.3467 213.075 25.32ZM204.675 45.4L203.155 49.68C202.888 50.3467 202.608 50.9067 202.315 51.36C202.048 51.84 201.741 52.2267 201.395 52.52C201.021 52.84 200.541 53.08 199.955 53.24C199.368 53.4267 198.688 53.52 197.915 53.52C197.275 53.52 196.608 53.4133 195.915 53.2C195.248 52.9867 194.688 52.64 194.235 52.16C193.781 51.68 193.555 51.0667 193.555 50.32C193.555 49.4933 193.848 48.8267 194.435 48.32C195.021 47.84 195.795 47.6 196.755 47.6C197.635 47.6 198.355 47.8133 198.915 48.24C199.475 48.6667 199.755 49.2933 199.755 50.12C199.755 50.6533 199.581 51.16 199.235 51.64C198.915 52.12 198.421 52.48 197.755 52.72C197.888 52.7467 198.048 52.76 198.235 52.76C198.421 52.76 198.568 52.76 198.675 52.76C199.475 52.76 200.181 52.5067 200.795 52C201.408 51.4933 201.915 50.6933 202.315 49.6L203.715 45.48L204.675 45.4ZM229.937 24.76C231.057 24.76 231.964 24.9067 232.657 25.2C233.377 25.4667 233.937 25.84 234.337 26.32C234.764 26.8267 235.07 27.48 235.257 28.28C235.47 29.08 235.577 30.16 235.577 31.52V42.28C235.577 43.4 235.764 44.16 236.137 44.56C236.537 44.96 237.204 45.16 238.137 45.16V46C237.63 45.9733 236.87 45.9467 235.857 45.92C234.844 45.8667 233.844 45.84 232.857 45.84C231.844 45.84 230.844 45.8667 229.857 45.92C228.897 45.9467 228.164 45.9733 227.657 46V45.16C228.457 45.16 229.017 44.96 229.337 44.56C229.657 44.16 229.817 43.4 229.817 42.28V29.84C229.817 29.1733 229.75 28.6 229.617 28.12C229.484 27.6133 229.244 27.2267 228.897 26.96C228.55 26.6667 228.03 26.52 227.337 26.52C226.617 26.52 225.95 26.72 225.337 27.12C224.75 27.52 224.27 28.08 223.897 28.8C223.55 29.4933 223.377 30.28 223.377 31.16V42.28C223.377 43.4 223.537 44.16 223.857 44.56C224.204 44.96 224.764 45.16 225.537 45.16V46C225.057 45.9733 224.35 45.9467 223.417 45.92C222.51 45.8667 221.564 45.84 220.577 45.84C219.564 45.84 218.524 45.8667 217.457 45.92C216.39 45.9467 215.59 45.9733 215.057 46V45.16C215.99 45.16 216.644 44.96 217.017 44.56C217.417 44.16 217.617 43.4 217.617 42.28V29.68C217.617 28.48 217.43 27.6 217.057 27.04C216.71 26.4533 216.044 26.16 215.057 26.16V25.32C215.91 25.4 216.737 25.44 217.537 25.44C218.657 25.44 219.697 25.4 220.657 25.32C221.644 25.2133 222.55 25.0667 223.377 24.88V28.48C224.044 27.12 224.95 26.16 226.097 25.6C227.244 25.04 228.524 24.76 229.937 24.76ZM250.747 24.76C253.094 24.76 254.934 25.4533 256.267 26.84C257.601 28.2267 258.267 30.4933 258.267 33.64H245.107L245.027 32.88H253.227C253.254 31.5733 253.174 30.3733 252.987 29.28C252.801 28.16 252.507 27.2667 252.107 26.6C251.707 25.9333 251.174 25.6 250.507 25.6C249.574 25.6 248.774 26.1867 248.107 27.36C247.467 28.5333 247.081 30.48 246.947 33.2L247.067 33.44C247.041 33.76 247.014 34.0933 246.987 34.44C246.987 34.7867 246.987 35.1467 246.987 35.52C246.987 37.36 247.241 38.8533 247.747 40C248.281 41.1467 248.947 41.9867 249.747 42.52C250.547 43.0267 251.361 43.28 252.187 43.28C252.747 43.28 253.321 43.2 253.907 43.04C254.521 42.8533 255.134 42.5333 255.747 42.08C256.361 41.6 256.934 40.9333 257.467 40.08L258.187 40.32C257.867 41.3333 257.361 42.32 256.667 43.28C255.974 44.24 255.094 45.0267 254.027 45.64C252.961 46.2533 251.681 46.56 250.187 46.56C248.374 46.56 246.774 46.1733 245.387 45.4C244.001 44.6267 242.907 43.4533 242.107 41.88C241.334 40.3067 240.947 38.3067 240.947 35.88C240.947 33.4 241.361 31.3333 242.187 29.68C243.041 28.0267 244.201 26.8 245.667 26C247.161 25.1733 248.854 24.76 250.747 24.76ZM269.303 24.76C270.423 24.76 271.397 24.9067 272.223 25.2C273.077 25.4667 273.69 25.7333 274.063 26C274.97 26.6133 275.53 26.2133 275.743 24.8H276.583C276.53 25.5467 276.49 26.4667 276.463 27.56C276.437 28.6267 276.423 30.0533 276.423 31.84H275.583C275.45 30.8533 275.197 29.88 274.823 28.92C274.45 27.96 273.903 27.1733 273.183 26.56C272.49 25.9467 271.583 25.64 270.463 25.64C269.69 25.64 269.037 25.8667 268.503 26.32C267.97 26.7467 267.703 27.3733 267.703 28.2C267.703 29 267.943 29.7067 268.423 30.32C268.903 30.9067 269.517 31.48 270.263 32.04C271.037 32.5733 271.837 33.1467 272.663 33.76C273.543 34.4267 274.343 35.0933 275.063 35.76C275.783 36.4 276.357 37.1067 276.783 37.88C277.21 38.6533 277.423 39.5733 277.423 40.64C277.423 41.84 277.077 42.8933 276.383 43.8C275.69 44.68 274.77 45.36 273.623 45.84C272.503 46.32 271.25 46.56 269.863 46.56C269.063 46.56 268.343 46.48 267.703 46.32C267.09 46.16 266.557 45.96 266.103 45.72C265.757 45.56 265.423 45.4133 265.103 45.28C264.81 45.12 264.53 44.9867 264.263 44.88C263.997 44.8 263.757 44.8933 263.543 45.16C263.357 45.4267 263.21 45.8 263.103 46.28H262.263C262.317 45.4267 262.357 44.3867 262.383 43.16C262.41 41.9333 262.423 40.3067 262.423 38.28H263.263C263.423 39.72 263.717 41 264.143 42.12C264.57 43.2133 265.143 44.08 265.863 44.72C266.61 45.3333 267.543 45.64 268.663 45.64C269.117 45.64 269.557 45.5467 269.983 45.36C270.41 45.1733 270.757 44.8667 271.023 44.44C271.317 44.0133 271.463 43.4667 271.463 42.8C271.463 41.6267 271.077 40.6533 270.303 39.88C269.557 39.1067 268.597 38.2667 267.423 37.36C266.57 36.6667 265.757 35.9867 264.983 35.32C264.237 34.6267 263.623 33.88 263.143 33.08C262.663 32.2533 262.423 31.32 262.423 30.28C262.423 29.08 262.743 28.0667 263.383 27.24C264.023 26.4133 264.863 25.8 265.903 25.4C266.97 24.9733 268.103 24.76 269.303 24.76ZM288.58 24.76C289.7 24.76 290.673 24.9067 291.5 25.2C292.353 25.4667 292.967 25.7333 293.34 26C294.247 26.6133 294.807 26.2133 295.02 24.8H295.86C295.807 25.5467 295.767 26.4667 295.74 27.56C295.713 28.6267 295.7 30.0533 295.7 31.84H294.86C294.727 30.8533 294.473 29.88 294.1 28.92C293.727 27.96 293.18 27.1733 292.46 26.56C291.767 25.9467 290.86 25.64 289.74 25.64C288.967 25.64 288.313 25.8667 287.78 26.32C287.247 26.7467 286.98 27.3733 286.98 28.2C286.98 29 287.22 29.7067 287.7 30.32C288.18 30.9067 288.793 31.48 289.54 32.04C290.313 32.5733 291.113 33.1467 291.94 33.76C292.82 34.4267 293.62 35.0933 294.34 35.76C295.06 36.4 295.633 37.1067 296.06 37.88C296.487 38.6533 296.7 39.5733 296.7 40.64C296.7 41.84 296.353 42.8933 295.66 43.8C294.967 44.68 294.047 45.36 292.9 45.84C291.78 46.32 290.527 46.56 289.14 46.56C288.34 46.56 287.62 46.48 286.98 46.32C286.367 46.16 285.833 45.96 285.38 45.72C285.033 45.56 284.7 45.4133 284.38 45.28C284.087 45.12 283.807 44.9867 283.54 44.88C283.273 44.8 283.033 44.8933 282.82 45.16C282.633 45.4267 282.487 45.8 282.38 46.28H281.54C281.593 45.4267 281.633 44.3867 281.66 43.16C281.687 41.9333 281.7 40.3067 281.7 38.28H282.54C282.7 39.72 282.993 41 283.42 42.12C283.847 43.2133 284.42 44.08 285.14 44.72C285.887 45.3333 286.82 45.64 287.94 45.64C288.393 45.64 288.833 45.5467 289.26 45.36C289.687 45.1733 290.033 44.8667 290.3 44.44C290.593 44.0133 290.74 43.4667 290.74 42.8C290.74 41.6267 290.353 40.6533 289.58 39.88C288.833 39.1067 287.873 38.2667 286.7 37.36C285.847 36.6667 285.033 35.9867 284.26 35.32C283.513 34.6267 282.9 33.88 282.42 33.08C281.94 32.2533 281.7 31.32 281.7 30.28C281.7 29.08 282.02 28.0667 282.66 27.24C283.3 26.4133 284.14 25.8 285.18 25.4C286.247 24.9733 287.38 24.76 288.58 24.76Z" fill="white"/>
</svg>
