<svg width="24" height="23" viewBox="0 0 24 23" fill="none" xmlns="http://www.w3.org/2000/svg">
<g id="edit">
<path id="Vector" d="M11.042 3.83398H4.33366C3.82533 3.83398 3.33782 4.03592 2.97837 4.39536C2.61893 4.75481 2.41699 5.24232 2.41699 5.75065V19.1673C2.41699 19.6756 2.61893 20.1632 2.97837 20.5226C3.33782 20.882 3.82533 21.084 4.33366 21.084H17.7503C18.2587 21.084 18.7462 20.882 19.1056 20.5226C19.4651 20.1632 19.667 19.6756 19.667 19.1673V12.459" stroke="#5C8692" stroke-width="2" stroke-linecap="round" stroke-linejoin="round"/>
<path id="Vector_2" d="M18.2295 2.39621C18.6107 2.01496 19.1278 1.80078 19.667 1.80078C20.2062 1.80078 20.7232 2.01496 21.1045 2.39621C21.4857 2.77746 21.6999 3.29455 21.6999 3.83371C21.6999 4.37288 21.4857 4.88996 21.1045 5.27121L12.0003 14.3754L8.16699 15.3337L9.12533 11.5004L18.2295 2.39621Z" stroke="#5C8692" stroke-width="2" stroke-linecap="round" stroke-linejoin="round"/>
</g>
</svg>
